<svg width="33" height="34" viewBox="0 0 33 34" fill="none" xmlns="http://www.w3.org/2000/svg">
<path d="M28.875 33.3069V31.2444C28.875 29.9124 28.6172 28.7415 28.1016 27.7318C27.5859 26.722 26.8501 25.9002 25.894 25.2664C24.938 24.6326 23.853 24.1331 22.6392 23.7679C21.4253 23.4026 20.0664 23.1663 18.5625 23.0589V22.5433C20.3027 21.8128 21.769 20.3358 22.9614 18.1121C24.1538 15.8885 24.75 13.5735 24.75 11.1673C24.75 8.95441 23.9819 7.27863 22.4458 6.13995C20.9097 5.00128 18.9277 4.43195 16.5 4.43195C14.0723 4.43195 12.0903 5.00128 10.5542 6.13995C9.01807 7.27863 8.25 8.95441 8.25 11.1673C8.25 13.5091 8.8623 15.7864 10.0869 17.9993C11.3115 20.2122 12.7617 21.7054 14.4375 22.4788V23.0589C12.9336 23.1663 11.5747 23.4026 10.3608 23.7679C9.14697 24.1331 8.06201 24.6326 7.10596 25.2664C6.1499 25.9002 5.41406 26.722 4.89844 27.7318C4.38281 28.7415 4.125 29.9124 4.125 31.2444V33.3069C2.98633 33.3069 2.01416 32.9041 1.2085 32.0984C0.402832 31.2928 0 30.3206 0 29.1819V4.43195C0 3.29327 0.402832 2.32111 1.2085 1.51544C2.01416 0.709778 2.98633 0.306946 4.125 0.306946H28.875C30.0137 0.306946 30.9858 0.709778 31.7915 1.51544C32.5972 2.32111 33 3.29327 33 4.43195V29.1819C33 30.3206 32.5972 31.2928 31.7915 32.0984C30.9858 32.9041 30.0137 33.3069 28.875 33.3069Z" fill="#F6CD40"/>
</svg>
